<mxfile host="app.diagrams.net" modified="2024-01-31T13:40:29.704Z" agent="Mozilla/5.0 (Windows NT 10.0; Win64; x64) AppleWebKit/537.36 (KHTML, like Gecko) Chrome/121.0.0.0 Safari/537.36 Edg/121.0.0.0" etag="6Xizsi514CPgFg6QNCEl" version="23.0.2" type="github">
  <diagram name="Page-1" id="M8y6by8E7KbK7771LnwZ">
    <mxGraphModel dx="3334" dy="1860" grid="1" gridSize="1" guides="1" tooltips="1" connect="1" arrows="1" fold="1" page="0" pageScale="1" pageWidth="850" pageHeight="1100" math="0" shadow="0">
      <root>
        <mxCell id="0" />
        <mxCell id="1" parent="0" />
        <mxCell id="4c7yZJ19A7xujed--c4H-5" value="" style="rounded=1;whiteSpace=wrap;html=1;fillColor=none;arcSize=5;strokeWidth=2;dashed=1;fontSize=20;fontFamily=simsun;strokeColor=#999999;glass=0;labelBackgroundColor=none;fontStyle=1;" parent="1" vertex="1">
          <mxGeometry x="465" y="247" width="800" height="644" as="geometry" />
        </mxCell>
        <mxCell id="o0VXMryw7uouIPjplwq8-17" value="" style="rounded=1;fillColor=none;direction=south;dashed=1;strokeWidth=2;strokeColor=#999999;glass=0;fontFamily=simsun;labelBackgroundColor=none;fontSize=20;fontStyle=1" parent="1" vertex="1">
          <mxGeometry x="204" y="247" width="181" height="248" as="geometry" />
        </mxCell>
        <mxCell id="cGM-oHe4suLRWSGQP6Vy-26" value="" style="edgeStyle=orthogonalEdgeStyle;rounded=0;orthogonalLoop=1;jettySize=auto;exitX=0.5;exitY=0;exitDx=0;exitDy=0;endArrow=none;endFill=0;fontFamily=simsun;labelBackgroundColor=none;fontSize=20;fontStyle=1" parent="1" source="zI-hbchwOAUTR7jxpCwH-4" target="zI-hbchwOAUTR7jxpCwH-8" edge="1">
          <mxGeometry relative="1" as="geometry" />
        </mxCell>
        <mxCell id="zI-hbchwOAUTR7jxpCwH-4" value="" style="ellipse;direction=south;fillColor=#000000;rounded=0;fontFamily=simsun;labelBackgroundColor=none;fontSize=20;fontStyle=1" parent="1" vertex="1">
          <mxGeometry x="205" y="580.5" width="40" height="79" as="geometry" />
        </mxCell>
        <mxCell id="zI-hbchwOAUTR7jxpCwH-6" value="" style="rounded=0;fillColor=#d5e8d4;strokeColor=#82b366;strokeWidth=2;fontFamily=simsun;labelBackgroundColor=none;fontSize=20;fontStyle=1" parent="1" vertex="1">
          <mxGeometry x="285" y="720" width="80" height="40" as="geometry" />
        </mxCell>
        <mxCell id="o0VXMryw7uouIPjplwq8-26" value="" style="edgeStyle=orthogonalEdgeStyle;rounded=0;orthogonalLoop=1;jettySize=auto;exitX=1;exitY=0.25;exitDx=0;exitDy=0;entryX=0.25;entryY=1;entryDx=0;entryDy=0;strokeWidth=5;strokeColor=#0066CC;endArrow=none;endFill=0;shadow=0;fontFamily=simsun;labelBackgroundColor=none;fontSize=20;fontStyle=1" parent="1" source="zI-hbchwOAUTR7jxpCwH-7" target="zI-hbchwOAUTR7jxpCwH-92" edge="1">
          <mxGeometry relative="1" as="geometry" />
        </mxCell>
        <mxCell id="o0VXMryw7uouIPjplwq8-27" value="" style="edgeStyle=orthogonalEdgeStyle;rounded=0;orthogonalLoop=1;jettySize=auto;exitX=1;exitY=0.75;exitDx=0;exitDy=0;entryX=0.25;entryY=0;entryDx=0;entryDy=0;strokeWidth=5;strokeColor=#0066CC;endArrow=none;endFill=0;fontFamily=simsun;labelBackgroundColor=none;fontSize=20;fontStyle=1" parent="1" source="zI-hbchwOAUTR7jxpCwH-7" target="zI-hbchwOAUTR7jxpCwH-48" edge="1">
          <mxGeometry relative="1" as="geometry" />
        </mxCell>
        <mxCell id="zI-hbchwOAUTR7jxpCwH-7" value="" style="rounded=1;fillColor=#f8cecc;strokeWidth=2;strokeColor=#b85450;fontFamily=simsun;labelBackgroundColor=none;fontSize=20;fontStyle=1;gradientColor=none;gradientDirection=east;glass=0;" parent="1" vertex="1">
          <mxGeometry x="486" y="531" width="90" height="60" as="geometry" />
        </mxCell>
        <mxCell id="zI-hbchwOAUTR7jxpCwH-8" value="" style="rounded=0;fillColor=#d5e8d4;strokeColor=#82b366;strokeWidth=2;fontFamily=simsun;labelBackgroundColor=none;fontSize=20;fontStyle=1" parent="1" vertex="1">
          <mxGeometry x="285" y="600" width="80" height="40" as="geometry" />
        </mxCell>
        <mxCell id="zI-hbchwOAUTR7jxpCwH-11" value="" style="endArrow=none;rounded=0;strokeWidth=5;strokeColor=#d79b00;fillColor=#ffe6cc;fontFamily=simsun;labelBackgroundColor=none;fontSize=20;fontStyle=1" parent="1" edge="1">
          <mxGeometry width="50" height="50" relative="1" as="geometry">
            <mxPoint x="406" y="620" as="sourcePoint" />
            <mxPoint x="406" y="247" as="targetPoint" />
          </mxGeometry>
        </mxCell>
        <mxCell id="zI-hbchwOAUTR7jxpCwH-19" value="" style="rounded=1;fillColor=#f8cecc;strokeWidth=2;strokeColor=#b85450;fontFamily=simsun;labelBackgroundColor=none;fontSize=20;fontStyle=1" parent="1" vertex="1">
          <mxGeometry x="704" y="481" width="80" height="40" as="geometry" />
        </mxCell>
        <mxCell id="zI-hbchwOAUTR7jxpCwH-20" value="" style="rounded=1;fillColor=#f8cecc;strokeWidth=2;strokeColor=#b85450;fontFamily=simsun;labelBackgroundColor=none;fontSize=20;fontStyle=1" parent="1" vertex="1">
          <mxGeometry x="705" y="600" width="80" height="40" as="geometry" />
        </mxCell>
        <mxCell id="cGM-oHe4suLRWSGQP6Vy-11" value="" style="edgeStyle=orthogonalEdgeStyle;rounded=0;orthogonalLoop=1;jettySize=auto;exitX=0;exitY=0.5;exitDx=0;exitDy=0;entryX=1;entryY=0.5;entryDx=0;entryDy=0;endArrow=none;endFill=0;fontFamily=simsun;labelBackgroundColor=none;fontSize=20;fontStyle=1" parent="1" source="zI-hbchwOAUTR7jxpCwH-27" target="zI-hbchwOAUTR7jxpCwH-33" edge="1">
          <mxGeometry relative="1" as="geometry" />
        </mxCell>
        <mxCell id="zI-hbchwOAUTR7jxpCwH-27" value="" style="rounded=0;fillColor=#d5e8d4;strokeColor=#82b366;strokeWidth=2;fontFamily=simsun;labelBackgroundColor=none;fontSize=20;fontStyle=1" parent="1" vertex="1">
          <mxGeometry x="285" y="840" width="80" height="40" as="geometry" />
        </mxCell>
        <mxCell id="zI-hbchwOAUTR7jxpCwH-33" value="" style="rounded=1;fillColor=#D4E1F5;strokeWidth=2;fontFamily=simsun;labelBackgroundColor=none;fontSize=20;fontStyle=1" parent="1" vertex="1">
          <mxGeometry x="205" y="840" width="50" height="40" as="geometry" />
        </mxCell>
        <mxCell id="zI-hbchwOAUTR7jxpCwH-80" value="" style="group;rounded=0;fontFamily=simsun;labelBackgroundColor=none;fontSize=20;fontStyle=1;shadow=0;" parent="1" vertex="1" connectable="0">
          <mxGeometry x="595" y="680" width="112" height="112" as="geometry" />
        </mxCell>
        <mxCell id="zI-hbchwOAUTR7jxpCwH-79" value="" style="aspect=fixed;fillColor=#fad7ac;strokeColor=#000000;strokeWidth=3;rounded=0;fontFamily=simsun;labelBackgroundColor=none;fontSize=20;fontStyle=1;shadow=1;" parent="zI-hbchwOAUTR7jxpCwH-80" vertex="1">
          <mxGeometry x="42" y="42" width="70" height="70" as="geometry" />
        </mxCell>
        <mxCell id="zI-hbchwOAUTR7jxpCwH-78" value="" style="aspect=fixed;fillColor=#fad7ac;strokeColor=#000000;strokeWidth=3;rounded=0;fontFamily=simsun;labelBackgroundColor=none;fontSize=20;fontStyle=1;shadow=1;" parent="zI-hbchwOAUTR7jxpCwH-80" vertex="1">
          <mxGeometry x="28" y="28" width="70" height="70" as="geometry" />
        </mxCell>
        <mxCell id="zI-hbchwOAUTR7jxpCwH-75" value="" style="aspect=fixed;fillColor=#fad7ac;strokeColor=#000000;strokeWidth=3;rounded=0;fontFamily=simsun;labelBackgroundColor=none;fontSize=20;fontStyle=1;shadow=1;" parent="zI-hbchwOAUTR7jxpCwH-80" vertex="1">
          <mxGeometry x="14" y="14" width="70" height="70" as="geometry" />
        </mxCell>
        <mxCell id="zI-hbchwOAUTR7jxpCwH-48" value="" style="aspect=fixed;fillColor=#fad7ac;strokeColor=#000000;strokeWidth=3;rounded=0;fontFamily=simsun;labelBackgroundColor=none;fontSize=20;fontStyle=1;shadow=1;" parent="zI-hbchwOAUTR7jxpCwH-80" vertex="1">
          <mxGeometry width="70" height="70" as="geometry" />
        </mxCell>
        <mxCell id="zI-hbchwOAUTR7jxpCwH-82" value="" style="group;rounded=0;fontFamily=simsun;labelBackgroundColor=none;fontSize=20;fontStyle=1;shadow=0;" parent="1" vertex="1" connectable="0">
          <mxGeometry x="832" y="680" width="84" height="84" as="geometry" />
        </mxCell>
        <mxCell id="zI-hbchwOAUTR7jxpCwH-81" value="" style="aspect=fixed;fillColor=#b1ddf0;strokeColor=#000000;strokeWidth=3;rounded=0;fontFamily=simsun;labelBackgroundColor=none;fontSize=20;fontStyle=1;shadow=1;" parent="zI-hbchwOAUTR7jxpCwH-82" vertex="1">
          <mxGeometry x="14" y="14" width="70" height="70" as="geometry" />
        </mxCell>
        <mxCell id="zI-hbchwOAUTR7jxpCwH-68" value="" style="aspect=fixed;fillColor=#b1ddf0;strokeColor=#000000;strokeWidth=3;rounded=0;fontFamily=simsun;labelBackgroundColor=none;fontSize=20;fontStyle=1;shadow=1;" parent="zI-hbchwOAUTR7jxpCwH-82" vertex="1">
          <mxGeometry width="70" height="70" as="geometry" />
        </mxCell>
        <mxCell id="zI-hbchwOAUTR7jxpCwH-84" value="" style="group;strokeColor=none;rounded=0;flipH=1;fontFamily=simsun;labelBackgroundColor=none;fontSize=20;fontStyle=1;strokeWidth=7;shadow=0;" parent="1" vertex="1" connectable="0">
          <mxGeometry x="1020" y="354" width="84" height="84" as="geometry" />
        </mxCell>
        <mxCell id="zI-hbchwOAUTR7jxpCwH-58" value="" style="aspect=fixed;fillColor=#e3c800;strokeColor=#000000;strokeWidth=3;fontColor=#000000;rounded=0;fontFamily=simsun;labelBackgroundColor=none;fontSize=20;fontStyle=1;shadow=1;" parent="zI-hbchwOAUTR7jxpCwH-84" vertex="1">
          <mxGeometry x="14" width="70" height="70" as="geometry" />
        </mxCell>
        <mxCell id="zI-hbchwOAUTR7jxpCwH-83" value="" style="aspect=fixed;fillColor=#e3c800;strokeColor=#000000;strokeWidth=3;fontColor=#000000;rounded=0;fontFamily=simsun;labelBackgroundColor=none;fontSize=20;fontStyle=1;shadow=1;" parent="zI-hbchwOAUTR7jxpCwH-84" vertex="1">
          <mxGeometry y="14" width="70" height="70" as="geometry" />
        </mxCell>
        <mxCell id="zI-hbchwOAUTR7jxpCwH-89" value="" style="group;rounded=0;flipH=1;fontFamily=simsun;labelBackgroundColor=none;fontSize=20;fontStyle=1;shadow=1;" parent="1" vertex="1" connectable="0">
          <mxGeometry x="820" y="312" width="126" height="126" as="geometry" />
        </mxCell>
        <mxCell id="zI-hbchwOAUTR7jxpCwH-57" value="" style="aspect=fixed;fillColor=#6d8764;strokeColor=#000000;strokeWidth=3;fontColor=#ffffff;rounded=0;fontFamily=simsun;labelBackgroundColor=none;fontSize=20;fontStyle=1;shadow=1;" parent="zI-hbchwOAUTR7jxpCwH-89" vertex="1">
          <mxGeometry x="56" width="70" height="70" as="geometry" />
        </mxCell>
        <mxCell id="zI-hbchwOAUTR7jxpCwH-85" value="" style="aspect=fixed;fillColor=#6d8764;strokeColor=#000000;strokeWidth=3;fontColor=#ffffff;rounded=0;fontFamily=simsun;labelBackgroundColor=none;fontSize=20;fontStyle=1;shadow=1;" parent="zI-hbchwOAUTR7jxpCwH-89" vertex="1">
          <mxGeometry x="42" y="14" width="70" height="70" as="geometry" />
        </mxCell>
        <mxCell id="zI-hbchwOAUTR7jxpCwH-86" value="" style="aspect=fixed;fillColor=#6d8764;strokeColor=#000000;strokeWidth=3;fontColor=#ffffff;rounded=0;fontFamily=simsun;labelBackgroundColor=none;fontSize=20;fontStyle=1;shadow=1;" parent="zI-hbchwOAUTR7jxpCwH-89" vertex="1">
          <mxGeometry x="28" y="28" width="70" height="70" as="geometry" />
        </mxCell>
        <mxCell id="zI-hbchwOAUTR7jxpCwH-87" value="" style="aspect=fixed;fillColor=#6d8764;strokeColor=#000000;strokeWidth=3;fontColor=#ffffff;rounded=0;fontFamily=simsun;labelBackgroundColor=none;fontSize=20;fontStyle=1;shadow=1;" parent="zI-hbchwOAUTR7jxpCwH-89" vertex="1">
          <mxGeometry x="14" y="42" width="70" height="70" as="geometry" />
        </mxCell>
        <mxCell id="zI-hbchwOAUTR7jxpCwH-88" value="" style="aspect=fixed;fillColor=#6d8764;strokeColor=#000000;strokeWidth=3;fontColor=#ffffff;rounded=0;fontFamily=simsun;labelBackgroundColor=none;fontSize=20;fontStyle=1;shadow=1;" parent="zI-hbchwOAUTR7jxpCwH-89" vertex="1">
          <mxGeometry y="56" width="70" height="70" as="geometry" />
        </mxCell>
        <mxCell id="zI-hbchwOAUTR7jxpCwH-100" value="" style="rounded=0;orthogonalLoop=1;jettySize=auto;exitX=0.5;exitY=1;exitDx=0;exitDy=0;endArrow=none;endFill=0;strokeWidth=5;strokeColor=#0066CC;fontFamily=simsun;labelBackgroundColor=none;fontSize=20;fontStyle=1" parent="1" source="zI-hbchwOAUTR7jxpCwH-92" target="zI-hbchwOAUTR7jxpCwH-48" edge="1">
          <mxGeometry relative="1" as="geometry" />
        </mxCell>
        <mxCell id="zI-hbchwOAUTR7jxpCwH-101" value="" style="edgeStyle=orthogonalEdgeStyle;rounded=0;orthogonalLoop=1;jettySize=auto;exitX=0.75;exitY=0;exitDx=0;exitDy=0;entryX=0;entryY=0.5;entryDx=0;entryDy=0;strokeWidth=5;endArrow=none;endFill=0;strokeColor=#0066CC;fontFamily=simsun;labelBackgroundColor=none;fontSize=20;fontStyle=1" parent="1" source="zI-hbchwOAUTR7jxpCwH-48" target="zI-hbchwOAUTR7jxpCwH-20" edge="1">
          <mxGeometry relative="1" as="geometry" />
        </mxCell>
        <mxCell id="zI-hbchwOAUTR7jxpCwH-102" value="" style="edgeStyle=orthogonalEdgeStyle;rounded=0;orthogonalLoop=1;jettySize=auto;exitX=0.75;exitY=1;exitDx=0;exitDy=0;entryX=0;entryY=0.5;entryDx=0;entryDy=0;strokeWidth=5;endArrow=none;endFill=0;strokeColor=#0066CC;fontFamily=simsun;labelBackgroundColor=none;fontSize=20;fontStyle=1" parent="1" source="zI-hbchwOAUTR7jxpCwH-92" target="zI-hbchwOAUTR7jxpCwH-19" edge="1">
          <mxGeometry relative="1" as="geometry" />
        </mxCell>
        <mxCell id="zI-hbchwOAUTR7jxpCwH-103" value="" style="edgeStyle=orthogonalEdgeStyle;rounded=0;orthogonalLoop=1;jettySize=auto;exitX=0.25;exitY=1;exitDx=0;exitDy=0;entryX=1;entryY=0.5;entryDx=0;entryDy=0;endArrow=none;endFill=0;strokeWidth=5;strokeColor=#0066CC;fontFamily=simsun;labelBackgroundColor=none;fontSize=20;fontStyle=1" parent="1" source="zI-hbchwOAUTR7jxpCwH-88" target="zI-hbchwOAUTR7jxpCwH-19" edge="1">
          <mxGeometry relative="1" as="geometry" />
        </mxCell>
        <mxCell id="zI-hbchwOAUTR7jxpCwH-104" value="" style="edgeStyle=orthogonalEdgeStyle;rounded=0;orthogonalLoop=1;jettySize=auto;exitX=0.25;exitY=0;exitDx=0;exitDy=0;entryX=1;entryY=0.5;entryDx=0;entryDy=0;endArrow=none;endFill=0;strokeWidth=5;strokeColor=#0066CC;fontFamily=simsun;labelBackgroundColor=none;fontSize=20;fontStyle=1" parent="1" source="zI-hbchwOAUTR7jxpCwH-68" target="zI-hbchwOAUTR7jxpCwH-20" edge="1">
          <mxGeometry relative="1" as="geometry" />
        </mxCell>
        <mxCell id="zI-hbchwOAUTR7jxpCwH-105" value="" style="edgeStyle=orthogonalEdgeStyle;rounded=0;orthogonalLoop=1;jettySize=auto;exitX=0.75;exitY=1;exitDx=0;exitDy=0;entryX=0.25;entryY=1;entryDx=0;entryDy=0;strokeWidth=5;strokeColor=#0066CC;endArrow=none;endFill=0;fontFamily=simsun;labelBackgroundColor=none;fontSize=20;fontStyle=1" parent="1" source="zI-hbchwOAUTR7jxpCwH-88" target="zI-hbchwOAUTR7jxpCwH-83" edge="1">
          <mxGeometry relative="1" as="geometry">
            <Array as="points">
              <mxPoint x="885" y="511" />
              <mxPoint x="1034" y="511" />
            </Array>
          </mxGeometry>
        </mxCell>
        <mxCell id="zI-hbchwOAUTR7jxpCwH-115" value="缝隙阵列" style="text;strokeColor=none;fillColor=none;align=center;verticalAlign=middle;rounded=0;fontFamily=simsun;labelBackgroundColor=none;fontSize=20;fontStyle=1" parent="1" vertex="1">
          <mxGeometry x="245" y="670" width="105" height="36" as="geometry" />
        </mxCell>
        <mxCell id="zI-hbchwOAUTR7jxpCwH-116" value="多臂螺旋天线" style="text;strokeColor=none;fillColor=none;align=center;verticalAlign=middle;rounded=0;fontFamily=simsun;labelBackgroundColor=none;fontSize=20;fontStyle=1" parent="1" vertex="1">
          <mxGeometry x="220" y="530" width="160" height="40" as="geometry" />
        </mxCell>
        <mxCell id="zI-hbchwOAUTR7jxpCwH-117" value="多转向回路" style="text;strokeColor=none;fillColor=none;align=center;verticalAlign=middle;rounded=0;fontFamily=simsun;labelBackgroundColor=none;fontSize=20;fontStyle=1" parent="1" vertex="1">
          <mxGeometry x="232.5" y="796" width="130" height="30" as="geometry" />
        </mxCell>
        <mxCell id="o0VXMryw7uouIPjplwq8-7" value="" style="endArrow=none;rounded=0;exitX=1;exitY=0.5;exitDx=0;exitDy=0;edgeStyle=orthogonalEdgeStyle;endFill=0;fontFamily=simsun;labelBackgroundColor=none;fontSize=20;strokeWidth=2;fontStyle=1" parent="1" source="4c7yZJ19A7xujed--c4H-2" edge="1">
          <mxGeometry width="50" height="50" relative="1" as="geometry">
            <mxPoint x="285" y="460" as="sourcePoint" />
            <mxPoint x="405" y="480" as="targetPoint" />
            <Array as="points">
              <mxPoint x="286" y="480" />
            </Array>
          </mxGeometry>
        </mxCell>
        <mxCell id="o0VXMryw7uouIPjplwq8-13" value="" style="endArrow=none;rounded=0;exitX=1;exitY=0.5;exitDx=0;exitDy=0;edgeStyle=orthogonalEdgeStyle;endFill=0;fontFamily=simsun;labelBackgroundColor=none;fontSize=20;strokeWidth=2;fontStyle=1" parent="1" source="4c7yZJ19A7xujed--c4H-1" edge="1">
          <mxGeometry width="50" height="50" relative="1" as="geometry">
            <mxPoint x="283" y="380" as="sourcePoint" />
            <mxPoint x="405" y="400" as="targetPoint" />
            <Array as="points">
              <mxPoint x="285" y="400" />
            </Array>
          </mxGeometry>
        </mxCell>
        <mxCell id="o0VXMryw7uouIPjplwq8-14" value="" style="triangle;direction=south;fillColor=#f5f5f5;rounded=0;fontFamily=simsun;labelBackgroundColor=none;fontSize=20;strokeColor=#666666;strokeWidth=2;fontStyle=1;fontColor=#333333;" parent="1" vertex="1">
          <mxGeometry x="257.25" y="262" width="55.5" height="38" as="geometry" />
        </mxCell>
        <mxCell id="o0VXMryw7uouIPjplwq8-15" value="" style="endArrow=none;rounded=0;exitX=1;exitY=0.5;exitDx=0;exitDy=0;edgeStyle=orthogonalEdgeStyle;endFill=0;fontFamily=simsun;labelBackgroundColor=none;fontSize=20;strokeWidth=2;fontStyle=1" parent="1" source="o0VXMryw7uouIPjplwq8-14" edge="1">
          <mxGeometry width="50" height="50" relative="1" as="geometry">
            <mxPoint x="865" y="1050" as="sourcePoint" />
            <mxPoint x="405" y="320" as="targetPoint" />
            <Array as="points">
              <mxPoint x="285" y="320" />
            </Array>
          </mxGeometry>
        </mxCell>
        <mxCell id="o0VXMryw7uouIPjplwq8-16" value="有源阵列" style="text;strokeColor=none;fillColor=none;align=center;verticalAlign=middle;rounded=0;fontFamily=simsun;labelBackgroundColor=none;fontSize=20;fontStyle=1" parent="1" vertex="1">
          <mxGeometry x="240" y="200" width="107.5" height="30" as="geometry" />
        </mxCell>
        <mxCell id="o0VXMryw7uouIPjplwq8-18" value="射频互联" style="text;strokeColor=none;fillColor=none;align=center;verticalAlign=middle;rounded=0;fontFamily=simsun;labelBackgroundColor=none;fontSize=20;fontStyle=1" parent="1" vertex="1">
          <mxGeometry x="476" y="481" width="110" height="30" as="geometry" />
        </mxCell>
        <mxCell id="o0VXMryw7uouIPjplwq8-20" value="中频互联" style="text;strokeColor=none;fillColor=none;align=center;verticalAlign=middle;rounded=0;fontFamily=simsun;labelBackgroundColor=none;fontSize=20;fontStyle=1" parent="1" vertex="1">
          <mxGeometry x="690" y="546" width="110" height="30" as="geometry" />
        </mxCell>
        <mxCell id="o0VXMryw7uouIPjplwq8-29" value="基带I&amp;O通道" style="text;strokeColor=none;fillColor=none;align=center;verticalAlign=middle;rounded=0;fontFamily=simsun;labelBackgroundColor=none;fontSize=20;fontStyle=1" parent="1" vertex="1">
          <mxGeometry x="874" y="518" width="160" height="31" as="geometry" />
        </mxCell>
        <mxCell id="o0VXMryw7uouIPjplwq8-37" value="" style="group;rounded=0;flipH=1;fontFamily=simsun;labelBackgroundColor=none;fontSize=20;fontStyle=1;shadow=0;" parent="1" vertex="1" connectable="0">
          <mxGeometry x="595" y="325" width="112" height="113" as="geometry" />
        </mxCell>
        <mxCell id="zI-hbchwOAUTR7jxpCwH-56" value="" style="aspect=fixed;fillColor=#7EA6E0;strokeColor=#000000;strokeWidth=3;rounded=0;fontFamily=simsun;labelBackgroundColor=none;fontSize=20;fontStyle=1;shadow=1;" parent="o0VXMryw7uouIPjplwq8-37" vertex="1">
          <mxGeometry x="42" width="70" height="70" as="geometry" />
        </mxCell>
        <mxCell id="zI-hbchwOAUTR7jxpCwH-90" value="" style="aspect=fixed;fillColor=#7EA6E0;strokeColor=#000000;strokeWidth=3;rounded=0;fontFamily=simsun;labelBackgroundColor=none;fontSize=20;fontStyle=1;shadow=1;" parent="o0VXMryw7uouIPjplwq8-37" vertex="1">
          <mxGeometry x="28" y="14" width="70" height="70" as="geometry" />
        </mxCell>
        <mxCell id="zI-hbchwOAUTR7jxpCwH-91" value="" style="aspect=fixed;fillColor=#7EA6E0;strokeColor=#000000;strokeWidth=3;rounded=0;fontFamily=simsun;labelBackgroundColor=none;fontSize=20;fontStyle=1;shadow=1;" parent="o0VXMryw7uouIPjplwq8-37" vertex="1">
          <mxGeometry x="14" y="28" width="70" height="70" as="geometry" />
        </mxCell>
        <mxCell id="zI-hbchwOAUTR7jxpCwH-92" value="" style="aspect=fixed;fillColor=#7EA6E0;strokeColor=#000000;strokeWidth=3;rounded=0;fontFamily=simsun;labelBackgroundColor=none;fontSize=20;fontStyle=1;shadow=1;" parent="o0VXMryw7uouIPjplwq8-37" vertex="1">
          <mxGeometry y="43" width="70" height="70" as="geometry" />
        </mxCell>
        <mxCell id="o0VXMryw7uouIPjplwq8-41" value="" style="edgeStyle=segmentEdgeStyle;endArrow=none;curved=0;rounded=0;endSize=8;startSize=8;exitX=0;exitY=0.75;exitDx=0;exitDy=0;strokeWidth=5;strokeColor=#d79b00;endFill=0;fillColor=#ffe6cc;fontFamily=simsun;labelBackgroundColor=none;fontSize=20;fontStyle=1" parent="1" source="zI-hbchwOAUTR7jxpCwH-7" edge="1">
          <mxGeometry width="50" height="50" relative="1" as="geometry">
            <mxPoint x="495" y="576" as="sourcePoint" />
            <mxPoint x="442" y="890" as="targetPoint" />
          </mxGeometry>
        </mxCell>
        <mxCell id="o0VXMryw7uouIPjplwq8-42" value="" style="edgeStyle=segmentEdgeStyle;endArrow=none;curved=0;rounded=0;endSize=8;startSize=8;strokeWidth=5;strokeColor=#d79b00;endFill=0;fillColor=#ffe6cc;fontFamily=simsun;labelBackgroundColor=none;fontSize=20;fontStyle=1;exitX=0;exitY=0.25;exitDx=0;exitDy=0;" parent="1" source="zI-hbchwOAUTR7jxpCwH-7" edge="1">
          <mxGeometry width="50" height="50" relative="1" as="geometry">
            <mxPoint x="481" y="546" as="sourcePoint" />
            <mxPoint x="443" y="247" as="targetPoint" />
          </mxGeometry>
        </mxCell>
        <mxCell id="cGM-oHe4suLRWSGQP6Vy-1" value="" style="group;rounded=0;strokeWidth=2;fontFamily=simsun;labelBackgroundColor=none;fontSize=20;fontStyle=1" parent="1" vertex="1" connectable="0">
          <mxGeometry x="205" y="720" width="50" height="40" as="geometry" />
        </mxCell>
        <mxCell id="zI-hbchwOAUTR7jxpCwH-23" value="" style="rounded=1;fillColor=#D4E1F5;strokeWidth=2;fontFamily=simsun;labelBackgroundColor=none;fontSize=20;fontStyle=1" parent="cGM-oHe4suLRWSGQP6Vy-1" vertex="1">
          <mxGeometry width="50" height="40" as="geometry" />
        </mxCell>
        <mxCell id="cGM-oHe4suLRWSGQP6Vy-41" value="" style="line;strokeWidth=15;direction=south;perimeter=backbonePerimeter;points=[];outlineConnect=0;strokeColor=#CCCCCC;fillColor=default;fontFamily=simsun;labelBackgroundColor=none;fontSize=20;fontStyle=1" parent="cGM-oHe4suLRWSGQP6Vy-1" vertex="1">
          <mxGeometry x="27.5" y="1" width="10" height="38" as="geometry" />
        </mxCell>
        <mxCell id="cGM-oHe4suLRWSGQP6Vy-6" value="" style="edgeStyle=orthogonalEdgeStyle;rounded=0;orthogonalLoop=1;jettySize=auto;exitX=1;exitY=0.5;exitDx=0;exitDy=0;entryX=0;entryY=0.5;entryDx=0;entryDy=0;endArrow=none;endFill=0;fontFamily=simsun;labelBackgroundColor=none;fontSize=20;fontStyle=1" parent="1" source="zI-hbchwOAUTR7jxpCwH-23" target="zI-hbchwOAUTR7jxpCwH-6" edge="1">
          <mxGeometry relative="1" as="geometry" />
        </mxCell>
        <mxCell id="cGM-oHe4suLRWSGQP6Vy-13" value="" style="endArrow=none;rounded=0;strokeWidth=5;strokeColor=#d79b00;fillColor=#ffe6cc;fontFamily=simsun;labelBackgroundColor=none;fontSize=20;fontStyle=1" parent="1" edge="1">
          <mxGeometry width="50" height="50" relative="1" as="geometry">
            <mxPoint x="406" y="890" as="sourcePoint" />
            <mxPoint x="406" y="740" as="targetPoint" />
          </mxGeometry>
        </mxCell>
        <mxCell id="cGM-oHe4suLRWSGQP6Vy-12" value="" style="shape=waypoint;sketch=0;fillStyle=solid;size=6;pointerEvents=1;points=[];fillColor=#ffe6cc;resizable=0;rotatable=0;perimeter=centerPerimeter;snapToPoint=1;strokeColor=#d79b00;fontFamily=simsun;labelBackgroundColor=none;fontSize=20;fontStyle=1" parent="1" vertex="1">
          <mxGeometry x="395" y="730" width="20" height="20" as="geometry" />
        </mxCell>
        <mxCell id="cGM-oHe4suLRWSGQP6Vy-15" value="" style="edgeStyle=orthogonalEdgeStyle;rounded=0;orthogonalLoop=1;jettySize=auto;exitX=1;exitY=0.5;exitDx=0;exitDy=0;entryX=0.85;entryY=0.75;entryDx=0;entryDy=0;entryPerimeter=0;endArrow=none;endFill=0;fontFamily=simsun;labelBackgroundColor=none;fontSize=20;fontStyle=1" parent="1" source="zI-hbchwOAUTR7jxpCwH-6" target="cGM-oHe4suLRWSGQP6Vy-12" edge="1">
          <mxGeometry relative="1" as="geometry" />
        </mxCell>
        <mxCell id="cGM-oHe4suLRWSGQP6Vy-17" value="" style="shape=waypoint;sketch=0;fillStyle=solid;size=6;pointerEvents=1;points=[];fillColor=#ffe6cc;resizable=0;rotatable=0;perimeter=centerPerimeter;snapToPoint=1;strokeColor=#d79b00;fontFamily=simsun;labelBackgroundColor=none;fontSize=20;fontStyle=1" parent="1" vertex="1">
          <mxGeometry x="395" y="850" width="20" height="20" as="geometry" />
        </mxCell>
        <mxCell id="cGM-oHe4suLRWSGQP6Vy-18" value="" style="edgeStyle=orthogonalEdgeStyle;rounded=0;orthogonalLoop=1;jettySize=auto;exitX=1;exitY=0.5;exitDx=0;exitDy=0;entryX=0.45;entryY=0.85;entryDx=0;entryDy=0;entryPerimeter=0;endArrow=none;endFill=0;fontFamily=simsun;labelBackgroundColor=none;fontSize=20;fontStyle=1" parent="1" source="zI-hbchwOAUTR7jxpCwH-27" target="cGM-oHe4suLRWSGQP6Vy-17" edge="1">
          <mxGeometry relative="1" as="geometry" />
        </mxCell>
        <mxCell id="cGM-oHe4suLRWSGQP6Vy-24" value="" style="endArrow=none;rounded=0;strokeWidth=5;strokeColor=#d79b00;fillColor=#ffe6cc;fontFamily=simsun;labelBackgroundColor=none;fontSize=20;fontStyle=1" parent="1" edge="1">
          <mxGeometry width="50" height="50" relative="1" as="geometry">
            <mxPoint x="406" y="740" as="sourcePoint" />
            <mxPoint x="406" y="620" as="targetPoint" />
          </mxGeometry>
        </mxCell>
        <mxCell id="cGM-oHe4suLRWSGQP6Vy-23" value="" style="shape=waypoint;sketch=0;fillStyle=solid;size=6;pointerEvents=1;points=[];fillColor=#ffe6cc;resizable=0;rotatable=0;perimeter=centerPerimeter;snapToPoint=1;strokeColor=#d79b00;fontFamily=simsun;labelBackgroundColor=none;fontSize=20;fontStyle=1" parent="1" vertex="1">
          <mxGeometry x="395" y="610" width="20" height="20" as="geometry" />
        </mxCell>
        <mxCell id="cGM-oHe4suLRWSGQP6Vy-25" value="" style="edgeStyle=orthogonalEdgeStyle;rounded=0;orthogonalLoop=1;jettySize=auto;exitX=1;exitY=0.5;exitDx=0;exitDy=0;entryX=0.6;entryY=0.75;entryDx=0;entryDy=0;entryPerimeter=0;endArrow=none;endFill=0;fontFamily=simsun;labelBackgroundColor=none;fontSize=20;fontStyle=1" parent="1" source="zI-hbchwOAUTR7jxpCwH-8" target="cGM-oHe4suLRWSGQP6Vy-23" edge="1">
          <mxGeometry relative="1" as="geometry" />
        </mxCell>
        <mxCell id="cGM-oHe4suLRWSGQP6Vy-33" value="多功能调制器" style="text;strokeColor=none;fillColor=none;align=center;verticalAlign=middle;rounded=0;fontFamily=simsun;labelBackgroundColor=none;fontSize=20;fontStyle=1" parent="1" vertex="1">
          <mxGeometry x="803" y="780" width="160" height="30" as="geometry" />
        </mxCell>
        <mxCell id="cGM-oHe4suLRWSGQP6Vy-34" value="发射频率变换器" style="text;strokeColor=none;fillColor=none;align=center;verticalAlign=middle;rounded=0;fontFamily=simsun;labelBackgroundColor=none;fontSize=20;fontStyle=1" parent="1" vertex="1">
          <mxGeometry x="558.5" y="800" width="185" height="40" as="geometry" />
        </mxCell>
        <mxCell id="cGM-oHe4suLRWSGQP6Vy-35" value="接收频率变换器" style="text;strokeColor=none;fillColor=none;align=center;verticalAlign=middle;rounded=0;fontFamily=simsun;labelBackgroundColor=none;fontSize=20;fontStyle=1" parent="1" vertex="1">
          <mxGeometry x="558.5" y="270" width="185" height="40" as="geometry" />
        </mxCell>
        <mxCell id="cGM-oHe4suLRWSGQP6Vy-36" value="接收机" style="text;strokeColor=none;fillColor=none;align=center;verticalAlign=middle;rounded=0;fontFamily=simsun;labelBackgroundColor=none;fontSize=20;fontStyle=1" parent="1" vertex="1">
          <mxGeometry x="841.25" y="255" width="83.5" height="40" as="geometry" />
        </mxCell>
        <mxCell id="cGM-oHe4suLRWSGQP6Vy-37" value="预处理机" style="text;strokeColor=none;fillColor=none;align=center;verticalAlign=middle;rounded=0;fontFamily=simsun;labelBackgroundColor=none;fontSize=20;fontStyle=1" parent="1" vertex="1">
          <mxGeometry x="1009.5" y="305" width="105" height="30" as="geometry" />
        </mxCell>
        <mxCell id="cGM-oHe4suLRWSGQP6Vy-40" value="" style="line;strokeWidth=9;direction=south;perimeter=backbonePerimeter;points=[];outlineConnect=0;strokeColor=#CCCCCC;fillColor=default;fontFamily=simsun;labelBackgroundColor=none;fontSize=20;fontStyle=1" parent="1" vertex="1">
          <mxGeometry x="215" y="721" width="10" height="38" as="geometry" />
        </mxCell>
        <mxCell id="etWOPy7av3QSw1qqYknO-1" value="光交换网络" style="text;strokeColor=none;fillColor=none;align=center;verticalAlign=middle;rounded=0;fontFamily=simsun;labelBackgroundColor=none;fontSize=20;fontStyle=1" parent="1" vertex="1">
          <mxGeometry x="905" y="624" width="160" height="30" as="geometry" />
        </mxCell>
        <mxCell id="etWOPy7av3QSw1qqYknO-5" value="" style="edgeStyle=segmentEdgeStyle;endArrow=none;html=1;curved=0;rounded=0;endSize=8;startSize=8;exitX=0;exitY=0.5;exitDx=0;exitDy=0;entryX=0.75;entryY=1;entryDx=0;entryDy=0;startArrow=none;startFill=0;endFill=0;strokeWidth=5;strokeColor=#0066CC;fontFamily=simsun;fontStyle=1;fontSize=20;" parent="1" source="etWOPy7av3QSw1qqYknO-6" target="zI-hbchwOAUTR7jxpCwH-83" edge="1">
          <mxGeometry width="50" height="50" relative="1" as="geometry">
            <mxPoint x="1134" y="621" as="sourcePoint" />
            <mxPoint x="724" y="688" as="targetPoint" />
          </mxGeometry>
        </mxCell>
        <mxCell id="etWOPy7av3QSw1qqYknO-6" value="&lt;blockquote style=&quot;margin: 0px 0px 0px 40px; border: none; padding: 0px; font-size: 20px;&quot;&gt;&lt;div style=&quot;font-size: 20px;&quot;&gt;&lt;span style=&quot;font-size: 20px; font-family: 宋体; background-color: initial;&quot;&gt;处理机&lt;/span&gt;&lt;/div&gt;&lt;/blockquote&gt;" style="html=1;whiteSpace=wrap;container=1;recursiveResize=0;collapsible=0;fillColor=#f0a30a;strokeColor=#BD7000;fontColor=#000000;fontFamily=simsun;align=left;verticalAlign=middle;fontStyle=1;fontSize=20;rounded=1;shadow=1;strokeWidth=3;" parent="1" vertex="1">
          <mxGeometry x="1113" y="586" width="123" height="70" as="geometry" />
        </mxCell>
        <mxCell id="etWOPy7av3QSw1qqYknO-7" value="" style="triangle;html=1;whiteSpace=wrap;fillColor=#e1d5e7;strokeColor=#9673a6;fontFamily=simsun;fontStyle=1;fontSize=20;rounded=0;shadow=0;" parent="etWOPy7av3QSw1qqYknO-6" vertex="1">
          <mxGeometry x="20" y="20" width="20" height="30" as="geometry" />
        </mxCell>
        <mxCell id="etWOPy7av3QSw1qqYknO-4" value="" style="edgeStyle=segmentEdgeStyle;endArrow=none;html=1;curved=0;rounded=0;endSize=8;startSize=8;exitX=0;exitY=0.5;exitDx=0;exitDy=0;entryX=0.75;entryY=0;entryDx=0;entryDy=0;startArrow=none;startFill=0;endFill=0;strokeWidth=5;strokeColor=#0066CC;fontFamily=simsun;fontStyle=1;fontSize=20;" parent="1" source="etWOPy7av3QSw1qqYknO-7" target="zI-hbchwOAUTR7jxpCwH-68" edge="1">
          <mxGeometry width="50" height="50" relative="1" as="geometry">
            <mxPoint x="1134" y="621" as="sourcePoint" />
            <mxPoint x="724" y="688" as="targetPoint" />
          </mxGeometry>
        </mxCell>
        <mxCell id="4c7yZJ19A7xujed--c4H-1" value="" style="triangle;direction=south;fillColor=#f5f5f5;rounded=0;fontFamily=simsun;labelBackgroundColor=none;fontSize=20;strokeColor=#666666;strokeWidth=2;fontStyle=1;fontColor=#333333;" parent="1" vertex="1">
          <mxGeometry x="258" y="341" width="55.5" height="38" as="geometry" />
        </mxCell>
        <mxCell id="4c7yZJ19A7xujed--c4H-2" value="" style="triangle;direction=south;fillColor=#f5f5f5;rounded=0;fontFamily=simsun;labelBackgroundColor=none;fontSize=20;strokeColor=#666666;strokeWidth=2;fontStyle=1;fontColor=#333333;" parent="1" vertex="1">
          <mxGeometry x="258" y="423" width="55.5" height="38" as="geometry" />
        </mxCell>
        <mxCell id="4c7yZJ19A7xujed--c4H-6" value="信号处理" style="text;strokeColor=none;fillColor=none;align=center;verticalAlign=middle;rounded=0;fontFamily=simsun;labelBackgroundColor=none;fontSize=20;fontStyle=1" parent="1" vertex="1">
          <mxGeometry x="826.25" y="206" width="107.5" height="30" as="geometry" />
        </mxCell>
      </root>
    </mxGraphModel>
  </diagram>
</mxfile>
